<svg xmlns="http://www.w3.org/2000/svg" xmlns:xlink="http://www.w3.org/1999/xlink" width="33" height="29" version="1.1" viewBox="0 0 33 29"><title>sketch-symbol copy 2</title><desc>Created with Sketch.</desc><g id="Resources" fill="none" fill-rule="evenodd" stroke="none" stroke-width="1"><g id="Resources---v2" fill-rule="nonzero" transform="translate(-671.000000, -1840.000000)"><g id="sketch-symbol-copy-2" transform="translate(671.000000, 1840.000000)"><polygon id="Shape" fill="#FDB300" points="7.075 .954 16.213 0 25.352 .954 32.427 10.336 16.213 28.986 0 10.336"/><g id="Group" transform="translate(0.000000, 10.335819)"><polygon id="Shape" fill="#EA6C00" points="6.567 0 16.213 18.65 0 0"/><polygon id="Shape" fill="#EA6C00" points="22.781 0 32.427 18.65 16.213 0" transform="translate(24.320077, 9.324885) scale(-1, 1) translate(-24.320077, -9.324885)"/><polygon id="Shape" fill="#FDAD00" points="6.567 0 25.86 0 16.213 18.65"/></g><g id="Group"><polygon id="Shape" fill="#FDD231" points="16.213 0 7.075 .954 6.567 10.336"/><polygon id="Shape" fill="#FDD231" points="25.86 0 16.721 .954 16.213 10.336" transform="translate(21.036452, 5.167906) scale(-1, 1) translate(-21.036452, -5.167906)"/><polygon id="Shape" fill="#FDAD00" points="25.352 10.336 32.427 .954 31.919 10.336" transform="translate(28.889329, 5.645062) scale(-1, 1) translate(-28.889329, -5.645062)"/><polygon id="Shape" fill="#FDAD00" points="0 10.336 7.075 .954 6.567 10.336"/><polygon id="Shape" fill="#FEEEB7" points="16.213 0 6.567 10.336 25.86 10.336"/></g></g></g></g></svg>